<svg xmlns="http://www.w3.org/2000/svg" viewBox="0 0 400 400" fill="none">
  <defs>
    <linearGradient id="bg" x1="0" y1="0" x2="1" y2="1">
      <stop offset="0%" stop-color="#1a1a2e"/>
      <stop offset="100%" stop-color="#16213e"/>
    </linearGradient>
    <linearGradient id="accent" x1="0" y1="0" x2="1" y2="0">
      <stop offset="0%" stop-color="#0f3460"/>
      <stop offset="100%" stop-color="#e94560"/>
    </linearGradient>
    <linearGradient id="doc" x1="0" y1="0" x2="0" y2="1">
      <stop offset="0%" stop-color="#ffffff"/>
      <stop offset="100%" stop-color="#e0e0e0"/>
    </linearGradient>
  </defs>
  <rect width="400" height="400" rx="40" fill="url(#bg)"/>
  <rect x="100" y="70" width="200" height="260" rx="12" fill="url(#doc)" stroke="#ccc" stroke-width="2"/>
  <rect x="120" y="100" width="60" height="8" rx="4" fill="#e94560"/>
  <rect x="120" y="120" width="140" height="6" rx="3" fill="#999"/>
  <rect x="120" y="136" width="120" height="6" rx="3" fill="#999"/>
  <rect x="120" y="152" width="160" height="6" rx="3" fill="#999"/>
  <rect x="120" y="180" width="60" height="8" rx="4" fill="#0f3460"/>
  <rect x="120" y="200" width="140" height="6" rx="3" fill="#999"/>
  <rect x="120" y="216" width="100" height="6" rx="3" fill="#999"/>
  <rect x="120" y="232" width="150" height="6" rx="3" fill="#999"/>
  <rect x="120" y="260" width="60" height="8" rx="4" fill="#0f3460"/>
  <rect x="120" y="280" width="130" height="6" rx="3" fill="#999"/>
  <rect x="120" y="296" width="110" height="6" rx="3" fill="#999"/>
  <circle cx="200" cy="370" r="18" fill="#e94560" opacity="0.15"/>
  <circle cx="200" cy="370" r="8" fill="#e94560" opacity="0.4"/>
  <path d="M196 367l6 6 10-10" stroke="#e94560" stroke-width="2.5" stroke-linecap="round" stroke-linejoin="round" fill="none" opacity="0.6"/>
</svg>
